<?xml version="1.0" encoding="utf-8"?>
<svg id="Layer_1" xmlns="http://www.w3.org/2000/svg" x="0px" y="0px"
	 width="300px" height="300px" viewBox="0 0 300 300" enable-background="new 0 0 300 300" xml:space="preserve">
<path fill="#004d00" d="M240.604,262.903c3.809,0,6.962,3.129,6.962,6.961c0,3.811-3.153,6.965-6.962,6.965c-3.832,0-6.962-3.154-6.962-6.965
	C233.642,266.032,236.772,262.903,240.604,262.903L240.604,262.903z M272.645,262.903c3.811,0,6.965,3.129,6.965,6.961
	c0,3.811-3.154,6.965-6.965,6.965c-3.832,0-6.962-3.154-6.962-6.965C265.685,266.032,268.815,262.903,272.645,262.903
	L272.645,262.903z M28.813,262.903c3.811,0,6.964,3.129,6.964,6.961c0,3.811-3.153,6.965-6.964,6.965
	c-3.832,0-6.964-3.154-6.964-6.965C21.849,266.032,24.981,262.903,28.813,262.903L28.813,262.903z M60.855,262.903
	c3.81,0,6.966,3.129,6.966,6.961c0,3.811-3.154,6.965-6.966,6.965c-3.831,0-6.961-3.154-6.961-6.965
	C53.894,266.032,57.024,262.903,60.855,262.903L60.855,262.903z M227.622,259.5c-2.288,2.851-3.66,6.456-3.66,10.364
	c0,9.148,7.521,16.643,16.643,16.643c7.593,0,14.053-5.167,16.024-12.158c1.978,6.991,8.445,12.158,16.019,12.158
	c9.148,0,16.643-7.494,16.643-16.643c0-0.92-0.076-1.825-0.223-2.707h7.645v-27.56h-13.917v7.659H18.668v-7.659H4.753v27.56h7.643
	c-0.147,0.882-0.223,1.789-0.223,2.707c0,9.148,7.521,16.643,16.641,16.643c7.595,0,14.053-5.167,16.022-12.158
	c1.979,6.991,8.447,12.158,16.02,12.158c9.149,0,16.643-7.494,16.643-16.643c0-3.908-1.369-7.514-3.651-10.364H227.622
	L227.622,259.5z"/>
<g>
	<path fill="none" d="M146.124,81.258c2.741-0.021,31.727-0.211,51.344-0.62H94.778C114.4,81.046,143.383,81.237,146.124,81.258z"/>
	<path fill="none" d="M105.512,219.024c2.232,8.58,11.166,5.365,11.166,5.365V110.688H97.179
		C97.177,110.688,103.279,210.444,105.512,219.024z"/>
	<rect x="136.774" y="110.688" fill="none" width="14.066" height="114.295"/>
	<path fill="none" d="M170.493,224.39c0,0,8.936,3.218,11.17-5.365c2.231-8.58,8.336-108.337,8.336-108.337h-19.506V224.39z"/>
	<path fill="none" d="M225.072,120.876c-2.797,3.761-5.444,5.779-7.841,6.69c-0.667,22.403-2.843,47.36-4.855,67.105
		c6.999,3.856,18.28,8.498,26.588,4.242c11.71-6,23.786-18.671,18.564-48.083C252.31,121.425,236.405,105.634,225.072,120.876z"/>
	<path fill="#004d00" d="M274.533,156.627c-4.512-49.491-28.551-59.901-41.856-57.378c-8.485,1.608-12.613,1.741-15.571,1.16
		c-0.401-7.813-1.192-14.591-2.484-19.769h0.128c0.468-1.741,0.719-3.568,0.719-5.454c0-9.317-6.075-17.235-14.548-20.138
		c0.032-0.394,0.049-0.791,0.049-1.19c0-9.317-8.252-16.872-18.43-16.872c-3.859,0-7.437,1.088-10.392,2.938
		c-5.941-4.392-13.313-6.993-21.295-6.993c-8.601,0-16.488,3.018-22.645,8.043c-3.224-2.48-7.485-3.989-12.158-3.989
		c-9.256,0-16.895,5.918-18.055,13.578c-11.7,1.234-20.866,12.574-20.866,26.386c0,1.253,0.081,2.48,0.226,3.688h0.276
		c-8.801,35.057,5.789,143.464,6.13,149.742c0.347,6.316,6.556,18.952,23.479,20.178c15.321,1.106,34.999,1.329,38.595,1.367l0,0
		c0,0,0.102,0,0.288,0c0.188,0,0.291,0,0.291,0l0,0c3.591-0.038,23.274-0.261,38.591-1.367
		c16.925-1.221,23.132-13.861,23.482-20.178c0.075-1.388,0.847-7.76,1.907-17.228c2.159-1.251,4.04-0.34,23.349,2.75
		C260.467,220.175,277.207,182.042,274.533,156.627z M105.899,57.852c0.972-5.805,7.357-10.287,15.101-10.287
		c3.91,0,7.471,1.144,10.168,3.022c5.146-3.808,11.746-6.095,18.938-6.095c6.676,0,12.841,1.971,17.809,5.3
		c2.475-1.404,5.47-2.227,8.694-2.227c8.513,0,15.417,5.724,15.417,12.783c0,0.305-0.02,0.602-0.045,0.902
		c7.084,2.201,12.163,8.199,12.163,15.256c0,1.378-0.198,2.713-0.558,3.992c-1.893,0.049-3.95,0.097-6.121,0.142
		c-19.615,0.407-48.603,0.6-51.344,0.621c-2.743-0.021-31.725-0.211-51.347-0.621c-2.185-0.044-4.253-0.093-6.158-0.142
		c-0.109-0.87-0.175-1.753-0.175-2.652C88.445,67.377,96.112,58.788,105.899,57.852z M116.676,224.39c0,0-8.934,3.218-11.165-5.365
		c-2.234-8.58-8.333-108.337-8.333-108.337h19.499V224.39z M150.843,224.982h-14.066V110.688h14.066V224.982z M181.663,219.024
		c-2.234,8.58-11.17,5.365-11.17,5.365V110.688h19.506C189.999,110.688,183.894,210.444,181.663,219.024z M238.964,198.914
		c-8.308,4.256-19.591-0.386-26.588-4.242c2.013-19.745,4.188-44.7,4.855-67.105c2.396-0.912,5.044-2.929,7.841-6.69
		c11.333-15.243,27.238,0.548,32.464,29.955C262.757,180.243,250.674,192.914,238.964,198.914z"/>
</g>
</svg>
