<svg height='300px' width='300px' fill="#000000" xmlns="http://www.w3.org/2000/svg"
     x="0px" y="0px" viewBox="0 0 164 164"
     enable-background="new 0 0 164 164" xml:space="preserve"><path fill-rule="evenodd" clip-rule="evenodd" fill="#000000" d="M131.471,123.668c2.082,0,3.806,1.711,3.806,3.806  c0,2.083-1.724,3.807-3.806,3.807c-2.095,0-3.806-1.724-3.806-3.807C127.665,125.379,129.376,123.668,131.471,123.668  L131.471,123.668z M148.987,123.668c2.083,0,3.807,1.711,3.807,3.806c0,2.083-1.724,3.807-3.807,3.807  c-2.095,0-3.806-1.724-3.806-3.807C145.182,125.379,146.893,123.668,148.987,123.668L148.987,123.668z M15.692,123.668  c2.083,0,3.807,1.711,3.807,3.806c0,2.083-1.724,3.807-3.807,3.807c-2.095,0-3.807-1.724-3.807-3.807  C11.885,125.379,13.597,123.668,15.692,123.668L15.692,123.668z M33.208,123.668c2.083,0,3.808,1.711,3.808,3.806  c0,2.083-1.724,3.807-3.808,3.807c-2.094,0-3.805-1.724-3.805-3.807C29.403,125.379,31.114,123.668,33.208,123.668L33.208,123.668z   M124.374,121.808c-1.251,1.558-2.001,3.529-2.001,5.666c0,5.001,4.112,9.098,9.098,9.098c4.151,0,7.682-2.825,8.76-6.647  c1.081,3.822,4.617,6.647,8.757,6.647c5.001,0,9.098-4.097,9.098-9.098c0-0.503-0.042-0.998-0.122-1.48h4.179v-15.066h-7.608v4.187  H10.146v-4.187H2.539v15.066h4.178c-0.081,0.482-0.122,0.978-0.122,1.48c0,5.001,4.112,9.098,9.097,9.098  c4.152,0,7.682-2.825,8.759-6.647c1.082,3.822,4.618,6.647,8.757,6.647c5.002,0,9.098-4.097,9.098-9.098  c0-2.137-0.748-4.108-1.996-5.666H124.374L124.374,121.808z M21.442,40.29h49.942v-5.759h-5.63v-5.783h33.171v5.783h-5.631v5.759  h49.943c27.923,0,27.923,68.169,0,68.169H21.442C-6.48,108.459-6.48,40.29,21.442,40.29z"></path></svg>
